<svg width="512" height="428" viewBox="0 0 512 428" fill="none" xmlns="http://www.w3.org/2000/svg">
<path d="M502.024 114.164C508.011 112.036 512.007 106.367 512 100.013C511.992 93.659 507.982 88 501.991 85.886L260.991 0.855C257.762 -0.285 254.239 -0.285 251.01 0.855L10.01 85.886C4.01801 87.999 0.00801199 93.659 1.1987e-05 100.013C-0.00798801 106.367 3.98901 112.036 9.97601 114.164L105.445 148.104V245.951C105.445 262.1 122.292 275.757 155.518 286.541C184.479 295.941 220.165 301.118 256.001 301.118C291.837 301.118 327.522 295.941 356.484 286.541C389.71 275.757 406.557 262.101 406.557 245.951V148.104L445.974 134.091V269.675C428.445 275.873 415.849 292.602 415.849 312.227C415.849 331.851 428.445 348.581 445.974 354.779V412.064C445.974 420.348 452.69 427.064 460.974 427.064C469.258 427.064 475.974 420.348 475.974 412.064V354.779C493.503 348.581 506.099 331.852 506.099 312.227C506.099 292.603 493.503 275.873 475.974 269.675V123.425L502.024 114.164ZM460.973 327.351C452.633 327.351 445.848 320.566 445.848 312.226C445.848 303.886 452.633 297.101 460.973 297.101C469.313 297.101 476.098 303.886 476.098 312.226C476.098 320.566 469.313 327.351 460.973 327.351ZM256 30.906L452.069 100.085L256 169.788L59.931 100.084L256 30.906ZM376.556 243.69C373.681 246.588 363.389 253.529 340.16 260.156C315.379 267.225 285.49 271.118 256 271.118C226.51 271.118 196.622 267.225 171.84 260.156C148.611 253.529 138.319 246.589 135.444 243.69V158.769L250.975 199.841C252.6 200.419 254.3 200.708 255.999 200.708C257.699 200.708 259.398 200.419 261.023 199.841L376.554 158.769V243.69H376.556Z" fill="#49B749"/>
</svg>
