<svg width="432" height="461" viewBox="0 0 432 461" fill="none" xmlns="http://www.w3.org/2000/svg">
<path fill-rule="evenodd" clip-rule="evenodd" d="M270.728 43.3466V100.68C270.728 108.94 264.007 115.662 255.747 115.662L171.697 115.661V144.026C171.697 146.188 173.452 147.947 175.607 147.947L294.342 147.947C295.78 147.947 297.162 148.508 298.195 149.511L325.681 176.211V153.476C325.681 150.422 328.157 147.947 331.212 147.947L354.79 147.947C356.952 147.947 358.712 146.188 358.712 144.027L358.712 47.267C358.712 45.1053 356.951 43.347 354.79 43.347L270.728 43.3466Z" fill="#49B749"/>
<path fill-rule="evenodd" clip-rule="evenodd" d="M72.6445 3.91978L72.6452 100.668C72.6452 102.829 74.4028 104.588 76.5643 104.588L100.142 104.588C103.197 104.588 105.673 107.065 105.673 110.12V133.822L137.778 105.954C138.784 105.08 140.071 104.6 141.403 104.6H165.811C165.929 104.593 166.047 104.588 166.167 104.588C166.286 104.588 166.404 104.593 166.522 104.6L255.747 104.6C257.909 104.6 259.667 102.841 259.667 100.68V3.91916C259.667 1.75861 257.909 0 255.747 0H76.5646C74.4031 0 72.6445 1.75923 72.6445 3.91978ZM223.916 66.0388C226.97 66.0388 229.446 68.5156 229.446 71.5703C229.447 74.6245 226.97 77.1 223.916 77.0997H108.386C105.331 77.0997 102.855 74.6245 102.855 71.5703C102.855 68.5147 105.331 66.0394 108.386 66.0394L223.916 66.0388ZM223.916 38.5491H108.386C105.331 38.5491 102.855 36.0738 102.855 33.0197C102.855 29.9643 105.331 27.4887 108.386 27.4887L223.916 27.4884C226.97 27.4884 229.446 29.9652 229.446 33.0197C229.447 36.0732 226.97 38.5494 223.916 38.5491Z" fill="#49B749"/>
<path fill-rule="evenodd" clip-rule="evenodd" d="M117.003 176.043C84.4763 176.043 58.0127 202.508 58.0127 235.035C58.013 267.561 84.4759 294.025 117.003 294.025C149.53 294.024 175.993 267.562 175.993 235.035C175.993 202.508 149.53 176.044 117.003 176.043Z" fill="#49B749"/>
<path fill-rule="evenodd" clip-rule="evenodd" d="M314.362 231.827C281.835 231.827 255.372 258.291 255.372 290.818C255.372 323.345 281.835 349.808 314.362 349.808C346.889 349.807 373.355 323.345 373.355 290.818C373.356 258.29 346.889 231.828 314.362 231.827Z" fill="#49B749"/>
<path fill-rule="evenodd" clip-rule="evenodd" d="M288.656 360.879C238.323 360.879 197.372 401.825 197.372 452.161L197.373 460.936H431.364V452.16C431.364 401.824 390.42 360.88 340.083 360.88L288.656 360.879Z" fill="#49B749"/>
<path fill-rule="evenodd" clip-rule="evenodd" d="M141.614 305.098L133.788 334.825L141.785 405.148H197.767C205.586 390.095 217.036 377.218 230.949 367.684C220.81 330.755 187.237 305.098 148.769 305.098H141.614Z" fill="#49B749"/>
<path fill-rule="evenodd" clip-rule="evenodd" d="M85.2146 305.098C38.2272 305.098 0 343.325 0 390.313V405.149H92.2193L100.217 334.825L92.3909 305.098H85.2146Z" fill="#49B749"/>
<path fill-rule="evenodd" clip-rule="evenodd" d="M110.766 339.959L103.354 405.148H130.652L123.24 339.959H110.766Z" fill="#49B749"/>
<path fill-rule="evenodd" clip-rule="evenodd" d="M130.176 305.098H103.83L110.095 328.897H123.912L130.176 305.098Z" fill="#49B749"/>
</svg>
