<svg width="441" height="441" viewBox="0 0 441 441" fill="none" xmlns="http://www.w3.org/2000/svg">
<path d="M406.306 384.923C403.091 378.47 294.382 160.268 288.547 148.554V25.8398H304.051C311.186 25.8398 316.971 20.0552 316.971 12.9199C316.971 5.78468 311.186 0 304.051 0C269.326 0 176.665 0 136.953 0C129.818 0 124.033 5.78468 124.033 12.9199C124.033 20.0552 129.818 25.8398 136.953 25.8398H152.457V148.553C-22.6236 499.979 62.4498 329.219 34.7064 384.906C21.8072 410.705 40.5919 441 69.374 441H371.63C400.506 441 419.151 410.616 406.306 384.923ZM176.941 157.355C177.832 155.565 178.297 153.593 178.297 151.594V25.8398H262.707V151.594C262.707 153.593 263.171 155.565 264.063 157.355L306.249 242.033H258.858C253.452 226.03 238.306 214.471 220.502 214.471C202.697 214.471 187.552 226.03 182.146 242.033H134.755L176.941 157.355ZM235.144 254.953C235.144 263.027 228.576 269.596 220.502 269.596C212.428 269.596 205.859 263.027 205.859 254.953C205.859 246.879 212.428 240.311 220.502 240.311C228.576 240.311 235.144 246.879 235.144 254.953ZM371.63 415.16H69.374C59.7685 415.16 53.5204 405.058 57.8262 396.445L121.881 267.873H182.146C187.552 283.877 202.697 295.436 220.502 295.436C238.306 295.436 253.452 283.877 258.858 267.873H319.122L383.185 396.462C387.482 405.057 381.231 415.16 371.63 415.16Z" fill="#49B749"/>
<path d="M165.377 304.049C143.055 304.049 124.895 322.209 124.895 344.531C124.895 366.853 143.055 385.014 165.377 385.014C187.699 385.014 205.859 366.853 205.859 344.531C205.859 322.209 187.699 304.049 165.377 304.049ZM165.377 359.174C157.303 359.174 150.734 352.605 150.734 344.531C150.734 336.457 157.303 329.889 165.377 329.889C173.451 329.889 180.02 336.457 180.02 344.531C180.02 352.605 173.451 359.174 165.377 359.174Z" fill="#49B749"/>
<path d="M274.515 314.445C272.9 306.699 265.171 302.454 258.098 304.609C250.968 306.882 247.505 314.087 249.485 320.724C251.893 328.113 259.178 331.237 265.6 329.329C272.406 327.104 275.69 320.722 274.515 314.445Z" fill="#49B749"/>
<path d="M315.859 342.008C314.264 334.357 306.678 330.012 299.433 332.171C292.037 334.582 288.918 341.882 290.829 348.287C293.208 355.586 300.427 358.828 306.944 356.891C313.877 354.624 317.017 348.193 315.859 342.008Z" fill="#49B749"/>
<path d="M260.734 369.57C259.121 361.835 251.402 357.575 244.317 359.734C237.102 362.034 233.751 369.305 235.704 375.849C238.114 383.245 245.395 386.362 251.819 384.454C258.628 382.227 261.908 375.844 260.734 369.57Z" fill="#49B749"/>
</svg>
